HIERARCHY
ROOT root
{
	OFFSET	0	13.1	24.9
	CHANNELS 6  Xposition Yposition Zposition Xrotation Yrotation Zrotation
	JOINT spine_1
	{
		OFFSET	0	9.99999	0
		CHANNELS 3  Xrotation Yrotation Zrotation
		JOINT spine_2
		{
			OFFSET	0	112	-10
			CHANNELS 3  Xrotation Yrotation Zrotation
			JOINT spine_3
			{
				OFFSET	0	206.5	19.3
				CHANNELS 3  Xrotation Yrotation Zrotation
				JOINT spine_4
				{
					OFFSET	0	110.4	14.6
					CHANNELS 3  Xrotation Yrotation Zrotation
					JOINT neck_1
					{
						OFFSET	0	71.8	-50.3
						CHANNELS 3  Xrotation Yrotation Zrotation
						JOINT neck_2
						{
							OFFSET	0	86.2	-25.8
							CHANNELS 3  Xrotation Yrotation Zrotation
							JOINT head_ee
							{
								OFFSET	0	179.8	-8.7
								CHANNELS 3  Xrotation Yrotation Zrotation
								End Site
								{
									OFFSET	1	0	0
								}
							}
						}
					}
					JOINT left_clavicle
					{
						OFFSET	-43.2	22.4	-70.8
						CHANNELS 3  Xrotation Yrotation Zrotation
						JOINT left_shoulder
						{
							OFFSET	-93.9	-5.79999	48.7
							CHANNELS 3  Xrotation Yrotation Zrotation
							JOINT left_elbow
							{
								OFFSET	-291.4	-30.8	15.2
								CHANNELS 3  Xrotation Yrotation Zrotation
								JOINT left_lowarm_twist
								{
									OFFSET	-110.7	-3.89999	13.6
									CHANNELS 3  Xrotation Yrotation Zrotation
									JOINT left_hand
									{
										OFFSET	-110.7	-3.89999	13.6
										CHANNELS 3  Xrotation Yrotation Zrotation
										JOINT left_ee
										{
											OFFSET	-80.8	-5.10001	12.1
											CHANNELS 3  Xrotation Yrotation Zrotation
											End Site
											{
												OFFSET	1	0	0
											}
										}
									}
								}
							}
						}
					}
					JOINT right_clavicle
					{
						OFFSET	43.2	22.4	-70.8
						CHANNELS 3  Xrotation Yrotation Zrotation
						JOINT right_shoulder
						{
							OFFSET	93.9	-5.79999	48.7
							CHANNELS 3  Xrotation Yrotation Zrotation
							JOINT right_elbow
							{
								OFFSET	291.4	-30.8	15.2
								CHANNELS 3  Xrotation Yrotation Zrotation
								JOINT right_lowarm_twist
								{
									OFFSET	110.7	-3.89999	13.6
									CHANNELS 3  Xrotation Yrotation Zrotation
									JOINT right_hand
									{
										OFFSET	110.7	-3.89999	13.6
										CHANNELS 3  Xrotation Yrotation Zrotation
										JOINT right_ee
										{
											OFFSET	80.8	-5.10001	12.1
											CHANNELS 3  Xrotation Yrotation Zrotation
											End Site
											{
												OFFSET	1	0	0
											}
										}
									}
								}
							}
						}
					}
				}
			}
		}
	}
	JOINT left_hip
	{
		OFFSET	-82.8	-127.5	0.300001
		CHANNELS 3  Xrotation Yrotation Zrotation
		JOINT left_knee
		{
			OFFSET	-28.2	-396.7	2.2
			CHANNELS 3  Xrotation Yrotation Zrotation
			JOINT left_ankle
			{
				OFFSET	-11.7	-411.3	35.4
				CHANNELS 3  Xrotation Yrotation Zrotation
				JOINT left_toes
				{
					OFFSET	0	-60	-88.6
					CHANNELS 3  Xrotation Yrotation Zrotation
					JOINT left_foot_ee
					{
						OFFSET	-22.5	-16.5	-42.2
						CHANNELS 3  Xrotation Yrotation Zrotation
						End Site
						{
							OFFSET	1	0	0
						}
					}
				}
			}
		}
	}
	JOINT right_hip
	{
		OFFSET	82.8	-127.5	0.300001
		CHANNELS 3  Xrotation Yrotation Zrotation
		JOINT right_knee
		{
			OFFSET	28.2	-396.7	2.2
			CHANNELS 3  Xrotation Yrotation Zrotation
			JOINT right_ankle
			{
				OFFSET	11.7	-411.3	35.4
				CHANNELS 3  Xrotation Yrotation Zrotation
				JOINT right_toes
				{
					OFFSET	0	-60	-88.6
					CHANNELS 3  Xrotation Yrotation Zrotation
					JOINT right_foot_ee
					{
						OFFSET	22.5	-16.5	-42.2
						CHANNELS 3  Xrotation Yrotation Zrotation
						End Site
						{
							OFFSET	1	0	0
						}
					}
				}
			}
		}
	}
}
MOTION
Frames: 11
Frame Time: 0.02
3622.52 621.19 -293.603 -166.058 -46.8778 -175.199 6.86827 0.182463 1.07045 6.8689 0.113982 1.07989 6.87016 0.0144643 1.08579 6.86857 0.185753 1.06988 -15.4251 7.33426 -4.60328 -15.6286 16.7323 -1.82057 -0.0 0.0 -0.0 0.51528 22.2228 3.30207 -34.1734 -31.9083 62.1568 0.557565 -15.4404 0.0755864 82.2361 -4.09874 -8.73076 -0.307952 -8.55168 -5.71967 -0.0 0.0 -0.0 13.5224 26.4416 -26.8342 -17.7629 8.43198 -61.024 1.49981 36.6085 -0.496163 18.7768 -0.275115 2.37208 0.106064 12.5062 4.60538 0.0 0.0 0.0 30.0892 39.2714 1.7496 0.21977 -0.00911179 -0.0324945 30.6457 26.6508 -4.22475 -18.4183 0.0 0.0 -0.0 0.0 -0.0 4.83719 -1.10866 9.74532 -15.52 -0.322086 -2.35267 40.1729 -24.963 5.18329 16.7808 -0.0 -0.0 0.0 0.0 0.0 
3635.57 621.782 -289.378 -165.977 -44.1663 -175.5 6.80787 0.28154 1.09756 6.80852 0.211133 1.11325 6.81171 0.107013 1.12803 6.81004 0.283811 1.09698 -14.4004 7.96614 -4.81394 -14.6041 18.1088 -1.96113 -0.0 0.0 -0.0 1.36237 22.1681 4.48892 -33.9733 -22.7044 60.324 0.919838 -24.4965 0.199691 79.6139 -3.7941 -8.58786 0.202268 -10.8416 -3.24374 -0.0 0.0 -0.0 13.3965 26.2709 -26.5629 -17.7471 10.1786 -62.8071 1.44287 35.5534 -0.462631 18.466 -0.276929 2.33242 -1.82082 -0.368726 12.0832 0.0 0.0 0.0 29.56 38.7437 1.28774 -0.00762974 0.000314172 0.0011287 33.7637 27.3308 -4.59788 -15.8327 0.0 0.0 -0.0 0.0 -0.0 4.96322 4.23399 9.96587 -17.6841 -0.316016 -2.68463 37.7878 -25.5295 4.96687 20.7595 -0.0 -0.0 0.0 0.0 0.0 
3648.34 627.078 -282.335 -165.618 -43.281 -175.274 6.97212 0.293323 1.04218 6.97269 0.226416 1.05873 6.97603 0.130371 1.07479 6.97454 0.298468 1.04072 -15.1807 9.54928 -3.10283 -15.5281 20.0933 0.349603 -0.0 0.0 -0.0 1.38911 22.6043 4.55707 -36.1393 -24.913 56.2021 1.03572 -27.1602 0.250194 75.9847 -3.38386 -8.36742 1.26642 -7.24589 5.48221 -0.0 0.0 -0.0 13.2785 25.0757 -26.4286 -17.0989 9.46664 -63.9795 1.23726 31.5029 -0.348988 17.9603 -0.27942 2.26787 -1.38717 -3.53137 7.70328 0.0 0.0 0.0 28.0586 37.6928 1.30126 0.118638 -0.00490346 -0.0175456 33.3809 27.0677 -4.54724 -13.1375 0.0 0.0 -0.0 0.0 -0.0 5.87924 5.72241 10.455 -20.3148 -0.291763 -3.0875 32.4685 -25.1268 4.39032 27.2723 -0.0 -0.0 0.0 0.0 0.0 
3665.89 636.611 -283.749 -165.364 -42.075 -175.337 6.76136 0.619953 1.03018 6.76178 0.553147 1.06754 6.7714 0.451074 1.11451 6.77021 0.621419 1.02929 -13.6567 8.96532 -2.38759 -13.8949 18.5522 0.552077 -0.0 0.0 -0.0 3.27471 22.7816 7.20217 -35.727 -17.6874 54.2619 1.29703 -32.7197 0.380765 73.9979 -3.16542 -8.23589 1.43426 -6.60713 6.89261 -0.0 0.0 -0.0 13.2785 25.6502 -26.363 -20.4696 13.437 -64.2769 1.02423 26.9014 -0.244969 19.4508 -0.270444 2.45803 -1.81195 -8.00934 8.43174 0.0 0.0 0.0 28.099 37.2527 1.36535 -2.08762 0.0803096 0.310296 34.2141 27.0055 -4.63721 -10.3599 0.0 0.0 -0.0 0.0 -0.0 8.79096 7.50969 11.3034 -25.7898 -0.182167 -3.92021 26.2124 -23.5963 3.62887 30.4827 -0.0 -0.0 0.0 0.0 0.0 
3687.02 638.677 -286.496 -165.13 -42.7606 -174.987 6.35064 0.426025 0.821821 6.35094 0.372869 0.847262 6.35603 0.285735 0.880475 6.3552 0.421199 0.824304 -11.6762 10.1574 -2.69098 -11.8812 20.9791 0.273578 -0.0 0.0 -0.0 3.56808 22.9176 7.61498 -31.7924 -13.5851 55.6129 1.38052 -34.3652 0.426902 69.2159 -2.65941 -7.88902 2.37356 -5.37816 13.8582 -0.0 0.0 -0.0 12.2421 25.3602 -24.0059 -23.3787 14.9415 -65.723 0.842202 22.6458 -0.168642 18.234 -0.278142 2.30281 -1.92452 -11.4969 7.49182 0.0 0.0 0.0 28.4319 39.3925 2.16352 -5.17936 0.178332 0.774604 34.1748 27.1799 -4.63839 -4.41318 0.0 0.0 -0.0 0.0 -0.0 12.0525 14.1199 11.008 -36.7907 0.275321 -5.54376 23.9208 -22.1986 3.32408 28.2136 -0.0 -0.0 0.0 0.0 0.0 
3700.22 644.008 -285.104 -166.502 -41.8364 -175.58 5.81243 0.57116 0.680581 5.81253 0.526697 0.715545 5.81894 0.444854 0.769101 5.81856 0.560734 0.689197 -10.2072 10.0717 -4.14502 -10.3143 21.7498 -1.45232 -0.0 0.0 -0.0 4.11679 22.1835 8.39204 -28.984 -14.4622 54.1179 1.32534 -33.2847 0.396185 70.8298 -2.82693 -8.01078 2.67872 -8.73119 14.5285 -0.0 0.0 -0.0 13.0361 26.5359 -25.6963 -21.2152 14.1287 -66.1179 0.55993 15.5027 -0.0762174 19.6972 -0.268483 2.48945 -1.71044 -8.22795 7.66462 0.0 0.0 0.0 25.4149 36.2531 2.39095 -3.02652 0.112727 0.450741 29.5905 27.7904 -4.13286 1.36187 -0.0 -0.0 -0.0 0.0 -0.0 14.8291 12.0665 11.8894 -41.4538 0.561841 -6.20059 23.9899 -19.0133 3.28743 27.7424 -0.0 -0.0 0.0 0.0 0.0 
3714.09 648.824 -287.607 -166.473 -42.6344 -175.334 5.34886 0.54327 0.727379 5.34902 0.495885 0.760473 5.35542 0.40272 0.813654 5.35488 0.526164 0.739846 -7.79435 9.54422 -3.09073 -7.78606 19.9861 -1.00681 -0.0 0.0 -0.0 5.13798 21.1964 9.89198 -27.7616 -13.5257 52.0971 1.53929 -37.3237 0.519909 70.1639 -2.75739 -7.96111 3.37799 -8.24981 19.6794 -0.0 0.0 -0.0 13.0796 26.499 -25.8012 -23.3804 13.4561 -65.9174 0.502283 13.9726 -0.061551 18.6334 -0.275979 2.35377 -1.15413 2.53603 8.85788 0.0 0.0 0.0 24.4613 35.6827 2.6726 -3.3945 0.124803 0.505924 28.2995 27.0541 -3.95854 6.22547 -0.0 -0.0 -0.0 0.0 -0.0 16.3544 15.7178 11.5661 -45.9693 0.889523 -6.81285 25.2497 -19.0947 3.4403 27.4275 -0.0 -0.0 0.0 0.0 0.0 
3724.46 654.311 -289.142 -166.261 -42.8227 -174.533 5.0569 0.474209 0.634053 5.05702 0.432902 0.662942 5.06191 0.348034 0.711173 5.06149 0.45598 0.647286 -5.92309 9.03446 -4.37882 -5.79135 19.9119 -2.75113 -0.0 0.0 -0.0 5.45714 22.3057 10.3114 -24.2531 -12.856 52.098 1.55838 -37.6646 0.531527 68.0611 -2.5417 -7.79905 3.7407 -9.11988 21.8921 -0.0 0.0 -0.0 13.2289 26.3519 -26.1645 -24.8144 13.1291 -64.4611 0.498386 13.8684 -0.0606135 19.2684 -0.271808 2.43478 -0.446331 3.79114 4.6129 0.0 0.0 0.0 23.3513 34.9744 3.35295 -1.89132 0.0732411 0.280999 27.4545 27.3656 -3.86421 7.70949 -0.0 -0.0 -0.0 0.0 -0.0 18.3736 17.7426 10.3513 -48.3874 1.08464 -7.12976 31.0567 -20.7995 4.13594 24.5351 -0.0 -0.0 0.0 0.0 0.0 
3727.86 656.643 -295.011 -167.258 -41.5548 -175.106 4.29057 0.434496 0.787123 4.29083 0.383531 0.813174 4.2961 0.269109 0.85786 4.2953 0.40121 0.804598 -7.25266 8.68096 -3.64311 -7.20522 18.7548 -1.84096 -0.0 0.0 -0.0 5.76539 22.6054 10.7395 -19.0177 -14.8157 51.7735 1.55085 -37.5304 0.526929 68.7549 -2.61221 -7.85339 4.56007 -14.1241 25.3917 -0.0 0.0 -0.0 12.8898 25.4182 -25.4896 -25.1194 15.7501 -63.2171 0.506621 14.0885 -0.0626028 16.7189 -0.283117 2.10936 0.276348 9.27993 2.07608 0.0 0.0 0.0 23.5649 34.0746 2.17597 -4.80575 0.167821 0.71823 28.0809 25.8786 -3.90293 10.4644 -0.0 -0.0 -0.0 0.0 -0.0 19.5022 23.1784 8.46608 -50.4735 1.26365 -7.39646 33.437 -23.2098 4.44761 23.1532 -0.0 -0.0 0.0 0.0 0.0 
3733.24 662.612 -293.094 -166.473 -41.8318 -174.008 4.34907 0.33815 0.61665 4.34923 0.298226 0.636916 4.35243 0.209276 0.671419 4.35194 0.312685 0.629944 -8.42478 8.47735 -2.8425 -8.4395 17.8391 -0.89291 -0.0 0.0 -0.0 6.04922 22.7058 11.1415 -14.2707 -14.8793 52.594 1.49882 -36.5905 0.495577 68.0385 -2.53941 -7.79726 3.39411 -11.4875 18.2936 -0.0 0.0 -0.0 12.6533 23.6828 -25.127 -25.603 16.146 -63.5508 0.449713 12.5592 -0.0494868 15.4563 -0.283355 1.9481 -0.00610816 9.93901 4.26729 0.0 0.0 0.0 24.0451 34.1442 1.5714 -4.43893 0.157143 0.662949 24.2328 25.0641 -3.41381 13.806 -0.0 -0.0 -0.0 0.0 -0.0 20.6184 25.119 7.25853 -50.4557 1.26209 -7.39421 35.572 -24.9484 4.72087 26.0762 -0.0 -0.0 0.0 0.0 0.0 
3751.01 662.533 -285.799 -166.25 -41.7563 -173.372 4.50614 0.177665 0.485416 4.50626 0.146417 0.495737 4.50744 0.0793458 0.510781 4.50711 0.159017 0.49184 -6.85388 6.33442 -2.15951 -6.82907 13.3203 -0.892863 -0.0 0.0 -0.0 5.78031 21.1187 10.8425 -14.3359 -15.1048 52.3114 1.47001 -36.0599 0.47851 62.3857 -1.99087 -7.32355 4.70285 -13.9993 26.5167 -0.0 0.0 -0.0 11.8605 18.189 -23.7309 -26.6817 22.5744 -62.3264 0.25219 7.12109 -0.0156921 10.1082 -0.244988 1.26632 0.0597375 17.1406 6.89479 0.0 0.0 0.0 21.7905 33.4702 2.38184 -2.2017 0.084371 0.327333 24.5425 25.734 -3.46615 17.5204 -0.0 -0.0 -0.0 0.0 -0.0 23.0843 25.3286 5.86228 -54.1225 1.59985 -7.84692 37.9587 -26.7714 5.02524 23.769 -0.0 -0.0 0.0 0.0 0.0 
